{"title":"18+ Hard Tide 2015 UNCENSORED Movies DVDRip XviD New +Sample ☻rD","uid":15547437,"size":740938594,"categoryP":"video","categoryS":"movies","magnet":"?xt=urn:btih:c5991117afa1e900e217b07a3aa3be8eda8fe1b0&amp;dn=18%2B+Hard+Tide+2015+UNCENSORED+Movies+DVDRip+XviD+New+%2BSample+%E2%98%BBrD&amp;tr=udp%3A%2F%2Ftracker.leechers-paradise.org%3A6969&amp;tr=udp%3A%2F%2Fzer0day.ch%3A1337&amp;tr=udp%3A%2F%2Fopen.demonii.com%3A1337&amp;tr=udp%3A%2F%2Ftracker.coppersurfer.tk%3A6969&amp;tr=udp%3A%2F%2Fexodus.desync.com%3A6969","seeders":1,"leechers":3,"uploader":"basicssom","files":2,"time":1470988831,"description":"----------------------------------------------------------------\r\n18+ Hard Tide 2015 UNCENSORED English Movies DVDRip XviD AAC New Source with Sample ☻rDX☻\r\n\r\nSCREEN SHOTS &amp; POSTER:\r\n  \nhttp://postimage.co.nr/2016/8/laptop/index.htm  \nhttp://postimage.co.nr/2016/8/laptop/1.html  \nhttp://postimage.co.nr/2016/8/laptop/2.html  \nhttp://postimage.co.nr/2016/8/laptop/3.html  \nhttp://postimage.co.nr/2016/8/laptop/4.html  \nhttp://postimage.co.nr/2016/8/laptop/5.html  \nhttp://postimage.co.nr/2016/8/laptop/6.html  \nhttp://postimage.co.nr/2016/8/laptop/7.html  \nhttp://postimage.co.nr/2016/8/laptop/8.html  \nhttp://postimage.co.nr/2016/8/laptop/9.html  \nhttp://postimage.co.nr/2016/8/laptop/10.html\r\n\r\nFormat                                   : Matroska\r\nFormat version                           : Version 4 / Version 2\r\nFile size                                : 694 MiB\r\nDuration                                 : 1 h 19 min\r\nOverall bit rate                         : 1 225 kb/s\r\nMovie name                               : Hard Tide 2015 English Movies DVDRip XviD AAC New Source ☻rDX☻\r\n\r\nVideo\r\nID                                       : 1\r\nFormat                                   : MPEG-4 Visual\r\nFormat profile                           : Advanced   \r\nFormat settings, BVOP                    : 2\r\nFormat settings, QPel                    : No\r\nFormat settings, GMC                     : No warppoints\r\nFormat settings, Matrix                  : Default (H.263)\r\nMuxing mode                              : Packed bitstream\r\nCodec ID                                 : V_MS/VFW/FOURCC / XVID\r\nCodec ID/Hint                            : XviD\r\nDuration                                 : 1 h 19 min\r\nBit rate                                 : 1 073 kb/s\r\nWidth                                    : 640 pixels\r\nHeight                                   : 272 pixels\r\nDisplay aspect ratio                     : 2.35:1\r\nFrame rate mode                          : Constant\r\nFrame rate                               : 25.000 FPS\r\nColor space                              : YUV\r\nChroma subsampling                       : 4:2:0\r\nBit depth                                : 8 bits\r\nScan type                                : Progressive\r\nCompression mode                         : Lossy\r\nBits/(Pixel*Frame)                       : 0.247\r\nStream size                              : 608 MiB (88%)\r\nTitle                                    : ☻rDX☻\r\nWriting library                          : XviD 64\r\nDefault                                  : Yes\r\nForced                                   : No\r\n\r\nAudio\r\nID                                       : 2\r\nFormat                                   : MPEG Audio\r\nFormat version                           : Version 1\r\nFormat profile                           : Layer 3\r\nMode                                     : Joint stereo\r\nMode extension                           : MS Stereo\r\nCodec ID                                 : A_MPEG/L3\r\nCodec ID/Hint                            : MP3\r\nDuration                                 : 1 h 19 min\r\nBit rate mode                            : Constant\r\nBit rate                                 : 128 kb/s\r\nChannel(s)                               : 2 channels\r\nSampling rate                            : 48.0 kHz\r\nCompression mode                         : Lossy\r\nDelay relative to video                  : 1 s 250 ms\r\nStream size                              : 72.5 MiB (10%)\r\nTitle                                    : ☻rDX☻\r\nWriting library                          : LAME3.99r\r\nEncoding settings                        : -m j -V 4 -q 3 -lowpass 17 -b 128\r\nDefault                                  : Yes\r\nForced                                   : No\r\n\r\nIMDB \nhttp://www.imdb.com/title/tt3116054/","torrent":{"xt":"urn:btih:c5991117afa1e900e217b07a3aa3be8eda8fe1b0","amp;dn":"18%2B+Hard+Tide+2015+UNCENSORED+Movies+DVDRip+XviD+New+%2BSample+%E2%98%BBrD","amp;tr":["udp%3A%2F%2Ftracker.leechers-paradise.org%3A6969","udp%3A%2F%2Fzer0day.ch%3A1337","udp%3A%2F%2Fopen.demonii.com%3A1337","udp%3A%2F%2Ftracker.coppersurfer.tk%3A6969","udp%3A%2F%2Fexodus.desync.com%3A6969"],"infoHash":"c5991117afa1e900e217b07a3aa3be8eda8fe1b0","infoHashBuffer":{"type":"Buffer","data":[197,153,17,23,175,161,233,0,226,23,176,122,58,163,190,142,218,143,225,176]},"announce":[],"urlList":[]}}